<svg width="24" height="24" viewBox="0 0 24 24" fill="none" xmlns="http://www.w3.org/2000/svg">
<path d="M12.0179 0H11.9633C5.35291 0 -0.00585938 5.36035 -0.00585938 11.9727V12.0273C-0.00585938 18.6397 5.35291 24 11.9633 24H12.0179C18.6283 24 23.9871 18.6397 23.9871 12.0273V11.9727C23.9871 5.36035 18.6283 0 12.0179 0Z" fill="black"/>
<path d="M15.7023 4.88257H8.2782C6.22716 4.88257 4.55859 6.55163 4.55859 8.60327V15.3972C4.55859 17.4489 6.22716 19.1179 8.2782 19.1179H15.7023C17.7533 19.1179 19.4219 17.4489 19.4219 15.3972V8.60327C19.4219 6.55163 17.7533 4.88257 15.7023 4.88257ZM5.87075 8.60327C5.87075 7.27559 6.95091 6.19511 8.2782 6.19511H15.7023C17.0296 6.19511 18.1097 7.27559 18.1097 8.60327V15.3972C18.1097 16.7249 17.0296 17.8054 15.7023 17.8054H8.2782C6.95091 17.8054 5.87075 16.7249 5.87075 15.3972V8.60327Z" fill="white"/>
<path d="M11.9901 15.4603C13.8974 15.4603 15.45 13.9082 15.45 11.9995C15.45 10.0908 13.8983 8.53857 11.9901 8.53857C10.082 8.53857 8.53027 10.0908 8.53027 11.9995C8.53027 13.9082 10.082 15.4603 11.9901 15.4603ZM11.9901 9.85196C13.1745 9.85196 14.1378 10.8156 14.1378 12.0003C14.1378 13.185 13.1745 14.1486 11.9901 14.1486C10.8058 14.1486 9.84243 13.185 9.84243 12.0003C9.84243 10.8156 10.8058 9.85196 11.9901 9.85196Z" fill="white"/>
<path d="M15.7701 9.09765C16.2837 9.09765 16.7023 8.67975 16.7023 8.16516C16.7023 7.65056 16.2845 7.23267 15.7701 7.23267C15.2557 7.23267 14.8379 7.65056 14.8379 8.16516C14.8379 8.67975 15.2557 9.09765 15.7701 9.09765Z" fill="white"/>
</svg>
