<svg width="25" height="24" viewBox="0 0 25 24" fill="none" xmlns="http://www.w3.org/2000/svg">
<path d="M24.9784 12.0004C24.9784 18.0612 20.4872 23.0717 14.6526 23.8848C14.1071 23.9605 13.5489 24 12.9824 24C12.3284 24 11.6862 23.9479 11.0608 23.847C5.34898 22.9271 0.986328 17.9729 0.986328 12.0004C0.986328 5.37294 6.35769 0 12.9832 0C19.6087 0 24.9801 5.37294 24.9801 12.0004H24.9784Z" fill="black"/>
<path d="M5.85087 5.29321L11.3836 12.6926L5.81641 18.7088H7.06973L11.9443 13.4418L15.8825 18.7088H20.1468L14.303 10.8932L19.4852 5.29321H18.2319L13.7432 10.144L10.116 5.29321H5.8517H5.85087ZM7.69344 6.21645H9.65201L18.3025 17.7855H16.3439L7.69344 6.21645Z" fill="white"/>
</svg>
