<svg width="25" height="24" viewBox="0 0 25 24" fill="none" xmlns="http://www.w3.org/2000/svg">
<path d="M24.9734 12C24.9734 5.37258 19.6024 0 12.9769 0C6.35148 0 0.980469 5.37258 0.980469 12C0.980469 18.6274 6.35148 24 12.9769 24C19.6024 24 24.9734 18.6274 24.9734 12Z" fill="black"/>
<path d="M20.5307 9.5134C20.4363 8.60187 20.2332 7.59422 19.4854 7.06467C18.9063 6.65402 18.1451 6.63883 17.4345 6.63968C15.9323 6.63968 14.4292 6.64221 12.927 6.64305C11.4822 6.64474 10.0373 6.64558 8.59242 6.64727C7.98885 6.64727 7.40213 6.60089 6.84155 6.86229C6.3602 7.08659 5.98339 7.51327 5.75663 7.98801C5.4422 8.64825 5.37645 9.3962 5.33851 10.1264C5.26855 11.4562 5.27613 12.7894 5.35959 14.1183C5.42113 15.088 5.57707 16.1597 6.32649 16.7778C6.99075 17.3251 7.92815 17.3521 8.78967 17.3529C11.5243 17.3554 14.2598 17.358 16.9953 17.3597C17.3459 17.3605 17.7118 17.3538 18.0692 17.315C18.7723 17.2391 19.4424 17.0375 19.8943 16.5164C20.3503 15.9911 20.4675 15.26 20.5366 14.5677C20.7052 12.888 20.7035 11.1923 20.5307 9.5134ZM11.3456 14.3544V9.64495L15.4223 11.9992L11.3456 14.3544Z" fill="white"/>
</svg>
